<svg width="1363" height="163" viewBox="0 0 1363 163" fill="none" xmlns="http://www.w3.org/2000/svg">
<path d="M0 15C0 6.71573 6.71573 0 15 0H37V163H15C6.71573 163 0 156.284 0 148V15Z" fill="#424242"/>
<rect width="1097" height="163" transform="translate(37)" fill="#F0F0F0"/>
<path d="M101.906 53.9219L94.3945 51.2383V48.0859L104.602 52.375V54.6367L101.906 53.9219ZM94.3945 56.1719L101.918 53.4297L104.602 52.7852V55.0352L94.3945 59.3242V56.1719ZM116.414 43.9375V61H112.898V43.9375H116.414ZM123.211 51.2266V53.9688H115.453V51.2266H123.211ZM124.031 43.9375V46.6914H115.453V43.9375H124.031ZM125.062 54.7891V54.543C125.062 53.6133 125.195 52.7578 125.461 51.9766C125.727 51.1875 126.113 50.5039 126.621 49.9258C127.129 49.3477 127.754 48.8984 128.496 48.5781C129.238 48.25 130.09 48.0859 131.051 48.0859C132.012 48.0859 132.867 48.25 133.617 48.5781C134.367 48.8984 134.996 49.3477 135.504 49.9258C136.02 50.5039 136.41 51.1875 136.676 51.9766C136.941 52.7578 137.074 53.6133 137.074 54.543V54.7891C137.074 55.7109 136.941 56.5664 136.676 57.3555C136.41 58.1367 136.02 58.8203 135.504 59.4062C134.996 59.9844 134.371 60.4336 133.629 60.7539C132.887 61.0742 132.035 61.2344 131.074 61.2344C130.113 61.2344 129.258 61.0742 128.508 60.7539C127.766 60.4336 127.137 59.9844 126.621 59.4062C126.113 58.8203 125.727 58.1367 125.461 57.3555C125.195 56.5664 125.062 55.7109 125.062 54.7891ZM128.438 54.543V54.7891C128.438 55.3203 128.484 55.8164 128.578 56.2773C128.672 56.7383 128.82 57.1445 129.023 57.4961C129.234 57.8398 129.508 58.1094 129.844 58.3047C130.18 58.5 130.59 58.5977 131.074 58.5977C131.543 58.5977 131.945 58.5 132.281 58.3047C132.617 58.1094 132.887 57.8398 133.09 57.4961C133.293 57.1445 133.441 56.7383 133.535 56.2773C133.637 55.8164 133.688 55.3203 133.688 54.7891V54.543C133.688 54.0273 133.637 53.543 133.535 53.0898C133.441 52.6289 133.289 52.2227 133.078 51.8711C132.875 51.5117 132.605 51.2305 132.27 51.0273C131.934 50.8242 131.527 50.7227 131.051 50.7227C130.574 50.7227 130.168 50.8242 129.832 51.0273C129.504 51.2305 129.234 51.5117 129.023 51.8711C128.82 52.2227 128.672 52.6289 128.578 53.0898C128.484 53.543 128.438 54.0273 128.438 54.543ZM138.609 54.7891V54.543C138.609 53.6133 138.742 52.7578 139.008 51.9766C139.273 51.1875 139.66 50.5039 140.168 49.9258C140.676 49.3477 141.301 48.8984 142.043 48.5781C142.785 48.25 143.637 48.0859 144.598 48.0859C145.559 48.0859 146.414 48.25 147.164 48.5781C147.914 48.8984 148.543 49.3477 149.051 49.9258C149.566 50.5039 149.957 51.1875 150.223 51.9766C150.488 52.7578 150.621 53.6133 150.621 54.543V54.7891C150.621 55.7109 150.488 56.5664 150.223 57.3555C149.957 58.1367 149.566 58.8203 149.051 59.4062C148.543 59.9844 147.918 60.4336 147.176 60.7539C146.434 61.0742 145.582 61.2344 144.621 61.2344C143.66 61.2344 142.805 61.0742 142.055 60.7539C141.312 60.4336 140.684 59.9844 140.168 59.4062C139.66 58.8203 139.273 58.1367 139.008 57.3555C138.742 56.5664 138.609 55.7109 138.609 54.7891ZM141.984 54.543V54.7891C141.984 55.3203 142.031 55.8164 142.125 56.2773C142.219 56.7383 142.367 57.1445 142.57 57.4961C142.781 57.8398 143.055 58.1094 143.391 58.3047C143.727 58.5 144.137 58.5977 144.621 58.5977C145.09 58.5977 145.492 58.5 145.828 58.3047C146.164 58.1094 146.434 57.8398 146.637 57.4961C146.84 57.1445 146.988 56.7383 147.082 56.2773C147.184 55.8164 147.234 55.3203 147.234 54.7891V54.543C147.234 54.0273 147.184 53.543 147.082 53.0898C146.988 52.6289 146.836 52.2227 146.625 51.8711C146.422 51.5117 146.152 51.2305 145.816 51.0273C145.48 50.8242 145.074 50.7227 144.598 50.7227C144.121 50.7227 143.715 50.8242 143.379 51.0273C143.051 51.2305 142.781 51.5117 142.57 51.8711C142.367 52.2227 142.219 52.6289 142.125 53.0898C142.031 53.543 141.984 54.0273 141.984 54.543ZM160.184 58.2344V43H163.582V61H160.523L160.184 58.2344ZM152.168 54.8125V54.5664C152.168 53.5977 152.277 52.7188 152.496 51.9297C152.715 51.1328 153.035 50.4492 153.457 49.8789C153.879 49.3086 154.398 48.8672 155.016 48.5547C155.633 48.2422 156.336 48.0859 157.125 48.0859C157.867 48.0859 158.516 48.2422 159.07 48.5547C159.633 48.8672 160.109 49.3125 160.5 49.8906C160.898 50.4609 161.219 51.1367 161.461 51.918C161.703 52.6914 161.879 53.5391 161.988 54.4609V55C161.879 55.8828 161.703 56.7031 161.461 57.4609C161.219 58.2188 160.898 58.8828 160.5 59.4531C160.109 60.0156 159.633 60.4531 159.07 60.7656C158.508 61.0781 157.852 61.2344 157.102 61.2344C156.312 61.2344 155.609 61.0742 154.992 60.7539C154.383 60.4336 153.867 59.9844 153.445 59.4062C153.031 58.8281 152.715 58.1484 152.496 57.3672C152.277 56.5859 152.168 55.7344 152.168 54.8125ZM155.543 54.5664V54.8125C155.543 55.3359 155.582 55.8242 155.66 56.2773C155.746 56.7305 155.883 57.1328 156.07 57.4844C156.266 57.8281 156.516 58.0977 156.82 58.293C157.133 58.4805 157.512 58.5742 157.957 58.5742C158.535 58.5742 159.012 58.4453 159.387 58.1875C159.762 57.9219 160.047 57.5586 160.242 57.0977C160.445 56.6367 160.562 56.1055 160.594 55.5039V53.9688C160.57 53.4766 160.5 53.0352 160.383 52.6445C160.273 52.2461 160.109 51.9062 159.891 51.625C159.68 51.3438 159.414 51.125 159.094 50.9688C158.781 50.8125 158.41 50.7344 157.98 50.7344C157.543 50.7344 157.168 50.8359 156.855 51.0391C156.543 51.2344 156.289 51.5039 156.094 51.8477C155.906 52.1914 155.766 52.5977 155.672 53.0664C155.586 53.5273 155.543 54.0273 155.543 54.5664ZM179.344 46.8555L174.703 61H170.965L177.305 43.9375H179.684L179.344 46.8555ZM183.199 61L178.547 46.8555L178.172 43.9375H180.574L186.949 61H183.199ZM182.988 54.6484V57.4023H173.977V54.6484H182.988ZM191.883 43V61H188.496V43H191.883ZM198.234 43V61H194.848V43H198.234ZM206.859 61.2344C205.875 61.2344 204.992 61.0781 204.211 60.7656C203.43 60.4453 202.766 60.0039 202.219 59.4414C201.68 58.8789 201.266 58.2266 200.977 57.4844C200.688 56.7344 200.543 55.9375 200.543 55.0938V54.625C200.543 53.6641 200.68 52.7852 200.953 51.9883C201.227 51.1914 201.617 50.5 202.125 49.9141C202.641 49.3281 203.266 48.8789 204 48.5664C204.734 48.2461 205.562 48.0859 206.484 48.0859C207.383 48.0859 208.18 48.2344 208.875 48.5312C209.57 48.8281 210.152 49.25 210.621 49.7969C211.098 50.3438 211.457 51 211.699 51.7656C211.941 52.5234 212.062 53.3672 212.062 54.2969V55.7031H201.984V53.4531H208.746V53.1953C208.746 52.7266 208.66 52.3086 208.488 51.9414C208.324 51.5664 208.074 51.2695 207.738 51.0508C207.402 50.832 206.973 50.7227 206.449 50.7227C206.004 50.7227 205.621 50.8203 205.301 51.0156C204.98 51.2109 204.719 51.4844 204.516 51.8359C204.32 52.1875 204.172 52.6016 204.07 53.0781C203.977 53.5469 203.93 54.0625 203.93 54.625V55.0938C203.93 55.6016 204 56.0703 204.141 56.5C204.289 56.9297 204.496 57.3008 204.762 57.6133C205.035 57.9258 205.363 58.168 205.746 58.3398C206.137 58.5117 206.578 58.5977 207.07 58.5977C207.68 58.5977 208.246 58.4805 208.77 58.2461C209.301 58.0039 209.758 57.6406 210.141 57.1562L211.781 58.9375C211.516 59.3203 211.152 59.6875 210.691 60.0391C210.238 60.3906 209.691 60.6797 209.051 60.9062C208.41 61.125 207.68 61.2344 206.859 61.2344ZM217.582 59.5703L220.945 48.3203H224.566L219.469 62.9102C219.359 63.2305 219.211 63.5742 219.023 63.9414C218.844 64.3086 218.598 64.6562 218.285 64.9844C217.98 65.3203 217.594 65.5938 217.125 65.8047C216.664 66.0156 216.098 66.1211 215.426 66.1211C215.105 66.1211 214.844 66.1016 214.641 66.0625C214.438 66.0234 214.195 65.9688 213.914 65.8984V63.4258C214 63.4258 214.09 63.4258 214.184 63.4258C214.277 63.4336 214.367 63.4375 214.453 63.4375C214.898 63.4375 215.262 63.3867 215.543 63.2852C215.824 63.1836 216.051 63.0273 216.223 62.8164C216.395 62.6133 216.531 62.3477 216.633 62.0195L217.582 59.5703ZM216.176 48.3203L218.93 57.5078L219.41 61.082L217.113 61.3281L212.555 48.3203H216.176Z" fill="#888888"/>
<path d="M112.125 84.875V119H103.898V84.875H112.125ZM122.391 84.875V91.2266H93.8672V84.875H122.391ZM135.68 119.469C133.617 119.469 131.773 119.148 130.148 118.508C128.523 117.852 127.148 116.953 126.023 115.812C124.914 114.672 124.062 113.359 123.469 111.875C122.891 110.391 122.602 108.82 122.602 107.164V106.273C122.602 104.414 122.859 102.695 123.375 101.117C123.891 99.5234 124.656 98.1328 125.672 96.9453C126.688 95.7578 127.961 94.8359 129.492 94.1797C131.023 93.5078 132.805 93.1719 134.836 93.1719C136.633 93.1719 138.242 93.4609 139.664 94.0391C141.086 94.6172 142.289 95.4453 143.273 96.5234C144.273 97.6016 145.031 98.9062 145.547 100.438C146.078 101.969 146.344 103.688 146.344 105.594V108.805H125.625V103.859H138.633V103.25C138.648 102.406 138.5 101.688 138.188 101.094C137.891 100.5 137.453 100.047 136.875 99.7344C136.297 99.4219 135.594 99.2656 134.766 99.2656C133.906 99.2656 133.195 99.4531 132.633 99.8281C132.086 100.203 131.656 100.719 131.344 101.375C131.047 102.016 130.836 102.758 130.711 103.602C130.586 104.445 130.523 105.336 130.523 106.273V107.164C130.523 108.102 130.648 108.953 130.898 109.719C131.164 110.484 131.539 111.141 132.023 111.688C132.523 112.219 133.117 112.633 133.805 112.93C134.508 113.227 135.305 113.375 136.195 113.375C137.273 113.375 138.336 113.172 139.383 112.766C140.43 112.359 141.328 111.688 142.078 110.75L145.664 115.016C145.148 115.75 144.414 116.461 143.461 117.148C142.523 117.836 141.398 118.398 140.086 118.836C138.773 119.258 137.305 119.469 135.68 119.469ZM160.266 113.375C161 113.375 161.625 113.242 162.141 112.977C162.672 112.695 163.07 112.305 163.336 111.805C163.617 111.289 163.75 110.672 163.734 109.953H171.164C171.18 111.859 170.711 113.531 169.758 114.969C168.82 116.391 167.539 117.5 165.914 118.297C164.305 119.078 162.484 119.469 160.453 119.469C158.469 119.469 156.734 119.148 155.25 118.508C153.766 117.852 152.523 116.945 151.523 115.789C150.539 114.617 149.797 113.25 149.297 111.688C148.812 110.125 148.57 108.43 148.57 106.602V106.062C148.57 104.234 148.812 102.539 149.297 100.977C149.797 99.3984 150.539 98.0312 151.523 96.875C152.523 95.7031 153.758 94.7969 155.227 94.1562C156.711 93.5 158.438 93.1719 160.406 93.1719C162.516 93.1719 164.375 93.5703 165.984 94.3672C167.609 95.1641 168.883 96.3203 169.805 97.8359C170.727 99.3516 171.18 101.188 171.164 103.344H163.734C163.75 102.578 163.633 101.891 163.383 101.281C163.133 100.672 162.742 100.188 162.211 99.8281C161.695 99.4531 161.031 99.2656 160.219 99.2656C159.406 99.2656 158.75 99.4453 158.25 99.8047C157.75 100.164 157.367 100.664 157.102 101.305C156.852 101.93 156.68 102.648 156.586 103.461C156.508 104.273 156.469 105.141 156.469 106.062V106.602C156.469 107.539 156.508 108.422 156.586 109.25C156.68 110.062 156.859 110.781 157.125 111.406C157.391 112.016 157.773 112.5 158.273 112.859C158.773 113.203 159.438 113.375 160.266 113.375ZM182.273 83V119H174.375V83H182.273ZM181.336 105.453L179.484 105.5C179.484 103.719 179.703 102.078 180.141 100.578C180.578 99.0781 181.203 97.7734 182.016 96.6641C182.828 95.5547 183.805 94.6953 184.945 94.0859C186.086 93.4766 187.352 93.1719 188.742 93.1719C189.992 93.1719 191.133 93.3516 192.164 93.7109C193.211 94.0703 194.109 94.6484 194.859 95.4453C195.625 96.2422 196.211 97.2812 196.617 98.5625C197.039 99.8438 197.25 101.406 197.25 103.25V119H189.305V103.203C189.305 102.172 189.156 101.375 188.859 100.812C188.578 100.234 188.172 99.8359 187.641 99.6172C187.109 99.3828 186.461 99.2656 185.695 99.2656C184.773 99.2656 184.023 99.4219 183.445 99.7344C182.867 100.047 182.422 100.484 182.109 101.047C181.812 101.594 181.609 102.242 181.5 102.992C181.391 103.742 181.336 104.562 181.336 105.453ZM231.539 109.93C231.539 109.398 231.461 108.922 231.305 108.5C231.148 108.062 230.859 107.656 230.438 107.281C230.016 106.906 229.406 106.531 228.609 106.156C227.828 105.766 226.797 105.359 225.516 104.938C224.016 104.438 222.57 103.875 221.18 103.25C219.789 102.609 218.547 101.867 217.453 101.023C216.359 100.164 215.492 99.1641 214.852 98.0234C214.211 96.8672 213.891 95.5234 213.891 93.9922C213.891 92.5234 214.219 91.2031 214.875 90.0312C215.531 88.8438 216.445 87.8359 217.617 87.0078C218.805 86.1641 220.195 85.5234 221.789 85.0859C223.383 84.6328 225.125 84.4062 227.016 84.4062C229.516 84.4062 231.719 84.8438 233.625 85.7188C235.547 86.5781 237.047 87.8047 238.125 89.3984C239.219 90.9766 239.766 92.8438 239.766 95H231.586C231.586 94.1406 231.406 93.3828 231.047 92.7266C230.703 92.0703 230.18 91.5547 229.477 91.1797C228.773 90.8047 227.891 90.6172 226.828 90.6172C225.797 90.6172 224.93 90.7734 224.227 91.0859C223.523 91.3984 222.992 91.8203 222.633 92.3516C222.273 92.8672 222.094 93.4375 222.094 94.0625C222.094 94.5781 222.234 95.0469 222.516 95.4688C222.812 95.875 223.227 96.2578 223.758 96.6172C224.305 96.9766 224.961 97.3203 225.727 97.6484C226.508 97.9766 227.383 98.2969 228.352 98.6094C230.164 99.1875 231.773 99.8359 233.18 100.555C234.602 101.258 235.797 102.062 236.766 102.969C237.75 103.859 238.492 104.875 238.992 106.016C239.508 107.156 239.766 108.445 239.766 109.883C239.766 111.414 239.469 112.773 238.875 113.961C238.281 115.148 237.43 116.156 236.32 116.984C235.211 117.797 233.883 118.414 232.336 118.836C230.789 119.258 229.062 119.469 227.156 119.469C225.406 119.469 223.68 119.25 221.977 118.812C220.289 118.359 218.758 117.672 217.383 116.75C216.008 115.812 214.906 114.617 214.078 113.164C213.266 111.695 212.859 109.953 212.859 107.938H221.109C221.109 108.938 221.242 109.781 221.508 110.469C221.773 111.156 222.164 111.711 222.68 112.133C223.195 112.539 223.828 112.836 224.578 113.023C225.328 113.195 226.188 113.281 227.156 113.281C228.203 113.281 229.047 113.133 229.688 112.836C230.328 112.523 230.797 112.117 231.094 111.617C231.391 111.102 231.539 110.539 231.539 109.93ZM256.992 93.6406V99.125H241.711V93.6406H256.992ZM244.922 87.3359H252.82V110.727C252.82 111.398 252.898 111.922 253.055 112.297C253.211 112.656 253.477 112.914 253.852 113.07C254.242 113.211 254.758 113.281 255.398 113.281C255.852 113.281 256.227 113.273 256.523 113.258C256.82 113.227 257.102 113.188 257.367 113.141V118.789C256.695 119.008 255.992 119.172 255.258 119.281C254.523 119.406 253.742 119.469 252.914 119.469C251.227 119.469 249.781 119.203 248.578 118.672C247.391 118.141 246.484 117.305 245.859 116.164C245.234 115.023 244.922 113.539 244.922 111.711V87.3359ZM273.305 112.625V102.172C273.305 101.453 273.203 100.836 273 100.32C272.797 99.8047 272.477 99.4062 272.039 99.125C271.602 98.8281 271.016 98.6797 270.281 98.6797C269.688 98.6797 269.18 98.7812 268.758 98.9844C268.336 99.1875 268.016 99.4922 267.797 99.8984C267.578 100.305 267.469 100.82 267.469 101.445H259.57C259.57 100.273 259.828 99.1875 260.344 98.1875C260.875 97.1719 261.625 96.2891 262.594 95.5391C263.578 94.7891 264.75 94.2109 266.109 93.8047C267.484 93.3828 269.016 93.1719 270.703 93.1719C272.719 93.1719 274.516 93.5078 276.094 94.1797C277.688 94.8516 278.945 95.8594 279.867 97.2031C280.789 98.5312 281.25 100.203 281.25 102.219V112.602C281.25 114.258 281.344 115.516 281.531 116.375C281.719 117.219 281.984 117.961 282.328 118.602V119H274.406C274.031 118.219 273.75 117.266 273.562 116.141C273.391 115 273.305 113.828 273.305 112.625ZM274.266 103.508L274.312 107.727H270.82C270.086 107.727 269.461 107.828 268.945 108.031C268.445 108.234 268.039 108.516 267.727 108.875C267.43 109.219 267.211 109.609 267.07 110.047C266.945 110.484 266.883 110.945 266.883 111.43C266.883 111.898 266.992 112.32 267.211 112.695C267.445 113.055 267.758 113.336 268.148 113.539C268.539 113.742 268.977 113.844 269.461 113.844C270.336 113.844 271.078 113.68 271.688 113.352C272.312 113.008 272.789 112.594 273.117 112.109C273.445 111.625 273.609 111.172 273.609 110.75L275.344 113.984C275.031 114.609 274.672 115.242 274.266 115.883C273.875 116.523 273.383 117.117 272.789 117.664C272.211 118.195 271.5 118.633 270.656 118.977C269.812 119.305 268.789 119.469 267.586 119.469C266.023 119.469 264.586 119.148 263.273 118.508C261.977 117.867 260.938 116.977 260.156 115.836C259.375 114.68 258.984 113.352 258.984 111.852C258.984 110.539 259.219 109.367 259.688 108.336C260.172 107.305 260.898 106.43 261.867 105.711C262.836 104.992 264.07 104.445 265.57 104.07C267.07 103.695 268.836 103.508 270.867 103.508H274.266ZM296.344 113.375C297.078 113.375 297.703 113.242 298.219 112.977C298.75 112.695 299.148 112.305 299.414 111.805C299.695 111.289 299.828 110.672 299.812 109.953H307.242C307.258 111.859 306.789 113.531 305.836 114.969C304.898 116.391 303.617 117.5 301.992 118.297C300.383 119.078 298.562 119.469 296.531 119.469C294.547 119.469 292.812 119.148 291.328 118.508C289.844 117.852 288.602 116.945 287.602 115.789C286.617 114.617 285.875 113.25 285.375 111.688C284.891 110.125 284.648 108.43 284.648 106.602V106.062C284.648 104.234 284.891 102.539 285.375 100.977C285.875 99.3984 286.617 98.0312 287.602 96.875C288.602 95.7031 289.836 94.7969 291.305 94.1562C292.789 93.5 294.516 93.1719 296.484 93.1719C298.594 93.1719 300.453 93.5703 302.062 94.3672C303.688 95.1641 304.961 96.3203 305.883 97.8359C306.805 99.3516 307.258 101.188 307.242 103.344H299.812C299.828 102.578 299.711 101.891 299.461 101.281C299.211 100.672 298.82 100.188 298.289 99.8281C297.773 99.4531 297.109 99.2656 296.297 99.2656C295.484 99.2656 294.828 99.4453 294.328 99.8047C293.828 100.164 293.445 100.664 293.18 101.305C292.93 101.93 292.758 102.648 292.664 103.461C292.586 104.273 292.547 105.141 292.547 106.062V106.602C292.547 107.539 292.586 108.422 292.664 109.25C292.758 110.062 292.938 110.781 293.203 111.406C293.469 112.016 293.852 112.5 294.352 112.859C294.852 113.203 295.516 113.375 296.344 113.375ZM318.586 82.9766V119H310.688V82.9766H318.586ZM334.805 93.6406L323.789 106.555L318.023 112.32L314.578 107.305L319.383 101.047L325.336 93.6406H334.805ZM326.344 119L319.57 107.445L325.406 103.297L335.391 119H326.344Z" fill="black"/>
<path d="M1134 0H1348C1356.28 0 1363 6.71573 1363 15V148C1363 156.284 1356.28 163 1348 163H1134V0Z" fill="#C91761"/>
<path fill-rule="evenodd" clip-rule="evenodd" d="M1218.75 53C1218.62 53 1218.49 53.0527 1218.4 53.1464C1218.3 53.2402 1218.25 53.3674 1218.25 53.5V109.5C1218.25 109.633 1218.3 109.76 1218.4 109.854C1218.49 109.947 1218.62 110 1218.75 110H1278.25C1278.38 110 1278.51 109.947 1278.6 109.854C1278.7 109.76 1278.75 109.633 1278.75 109.5V64C1278.75 63.8674 1278.7 63.7402 1278.6 63.6464C1278.51 63.5527 1278.38 63.5 1278.25 63.5H1248.5C1247.61 63.5 1246.77 63.1045 1246.2 62.4206L1238.34 53H1218.75ZM1214.15 48.9038C1215.37 47.6848 1217.03 47 1218.75 47H1239.75C1240.64 47 1241.48 47.3955 1242.05 48.0794L1249.91 57.5H1278.25C1279.97 57.5 1281.63 58.1848 1282.85 59.4038C1284.07 60.6228 1284.75 62.2761 1284.75 64V109.5C1284.75 111.224 1284.07 112.877 1282.85 114.096C1281.63 115.315 1279.97 116 1278.25 116H1218.75C1217.03 116 1215.37 115.315 1214.15 114.096C1212.93 112.877 1212.25 111.224 1212.25 109.5V53.5C1212.25 51.7761 1212.93 50.1228 1214.15 48.9038Z" fill="white"/>
<path fill-rule="evenodd" clip-rule="evenodd" d="M1243.97 75.5251C1245.34 76.892 1245.34 79.108 1243.97 80.4749L1237.7 86.75L1243.97 93.0251C1245.34 94.392 1245.34 96.608 1243.97 97.9749C1242.61 99.3417 1240.39 99.3417 1239.03 97.9749L1230.28 89.2249C1228.91 87.858 1228.91 85.642 1230.28 84.2751L1239.03 75.5251C1240.39 74.1583 1242.61 74.1583 1243.97 75.5251Z" fill="white"/>
<path fill-rule="evenodd" clip-rule="evenodd" d="M1252.28 97.9749C1250.91 96.608 1250.91 94.392 1252.28 93.0251L1258.55 86.75L1252.28 80.4749C1250.91 79.108 1250.91 76.892 1252.28 75.5251C1253.64 74.1583 1255.86 74.1583 1257.22 75.5251L1265.97 84.2751C1267.34 85.642 1267.34 87.858 1265.97 89.2249L1257.22 97.9749C1255.86 99.3417 1253.64 99.3417 1252.28 97.9749Z" fill="white"/>
</svg>
