<svg width="1363" height="163" viewBox="0 0 1363 163" fill="none" xmlns="http://www.w3.org/2000/svg">
<path d="M0 15C0 6.71573 6.71573 0 15 0H37V163H15C6.71573 163 0 156.284 0 148V15Z" fill="#424242"/>
<rect width="1097" height="163" transform="translate(37)" fill="#F0F0F0"/>
<path d="M101.906 53.9219L94.3945 51.2383V48.0859L104.602 52.375V54.6367L101.906 53.9219ZM94.3945 56.1719L101.918 53.4297L104.602 52.7852V55.0352L94.3945 59.3242V56.1719ZM116.414 43.9375V61H112.898V43.9375H116.414ZM123.211 51.2266V53.9688H115.453V51.2266H123.211ZM124.031 43.9375V46.6914H115.453V43.9375H124.031ZM125.062 54.7891V54.543C125.062 53.6133 125.195 52.7578 125.461 51.9766C125.727 51.1875 126.113 50.5039 126.621 49.9258C127.129 49.3477 127.754 48.8984 128.496 48.5781C129.238 48.25 130.09 48.0859 131.051 48.0859C132.012 48.0859 132.867 48.25 133.617 48.5781C134.367 48.8984 134.996 49.3477 135.504 49.9258C136.02 50.5039 136.41 51.1875 136.676 51.9766C136.941 52.7578 137.074 53.6133 137.074 54.543V54.7891C137.074 55.7109 136.941 56.5664 136.676 57.3555C136.41 58.1367 136.02 58.8203 135.504 59.4062C134.996 59.9844 134.371 60.4336 133.629 60.7539C132.887 61.0742 132.035 61.2344 131.074 61.2344C130.113 61.2344 129.258 61.0742 128.508 60.7539C127.766 60.4336 127.137 59.9844 126.621 59.4062C126.113 58.8203 125.727 58.1367 125.461 57.3555C125.195 56.5664 125.062 55.7109 125.062 54.7891ZM128.438 54.543V54.7891C128.438 55.3203 128.484 55.8164 128.578 56.2773C128.672 56.7383 128.82 57.1445 129.023 57.4961C129.234 57.8398 129.508 58.1094 129.844 58.3047C130.18 58.5 130.59 58.5977 131.074 58.5977C131.543 58.5977 131.945 58.5 132.281 58.3047C132.617 58.1094 132.887 57.8398 133.09 57.4961C133.293 57.1445 133.441 56.7383 133.535 56.2773C133.637 55.8164 133.688 55.3203 133.688 54.7891V54.543C133.688 54.0273 133.637 53.543 133.535 53.0898C133.441 52.6289 133.289 52.2227 133.078 51.8711C132.875 51.5117 132.605 51.2305 132.27 51.0273C131.934 50.8242 131.527 50.7227 131.051 50.7227C130.574 50.7227 130.168 50.8242 129.832 51.0273C129.504 51.2305 129.234 51.5117 129.023 51.8711C128.82 52.2227 128.672 52.6289 128.578 53.0898C128.484 53.543 128.438 54.0273 128.438 54.543ZM138.609 54.7891V54.543C138.609 53.6133 138.742 52.7578 139.008 51.9766C139.273 51.1875 139.66 50.5039 140.168 49.9258C140.676 49.3477 141.301 48.8984 142.043 48.5781C142.785 48.25 143.637 48.0859 144.598 48.0859C145.559 48.0859 146.414 48.25 147.164 48.5781C147.914 48.8984 148.543 49.3477 149.051 49.9258C149.566 50.5039 149.957 51.1875 150.223 51.9766C150.488 52.7578 150.621 53.6133 150.621 54.543V54.7891C150.621 55.7109 150.488 56.5664 150.223 57.3555C149.957 58.1367 149.566 58.8203 149.051 59.4062C148.543 59.9844 147.918 60.4336 147.176 60.7539C146.434 61.0742 145.582 61.2344 144.621 61.2344C143.66 61.2344 142.805 61.0742 142.055 60.7539C141.312 60.4336 140.684 59.9844 140.168 59.4062C139.66 58.8203 139.273 58.1367 139.008 57.3555C138.742 56.5664 138.609 55.7109 138.609 54.7891ZM141.984 54.543V54.7891C141.984 55.3203 142.031 55.8164 142.125 56.2773C142.219 56.7383 142.367 57.1445 142.57 57.4961C142.781 57.8398 143.055 58.1094 143.391 58.3047C143.727 58.5 144.137 58.5977 144.621 58.5977C145.09 58.5977 145.492 58.5 145.828 58.3047C146.164 58.1094 146.434 57.8398 146.637 57.4961C146.84 57.1445 146.988 56.7383 147.082 56.2773C147.184 55.8164 147.234 55.3203 147.234 54.7891V54.543C147.234 54.0273 147.184 53.543 147.082 53.0898C146.988 52.6289 146.836 52.2227 146.625 51.8711C146.422 51.5117 146.152 51.2305 145.816 51.0273C145.48 50.8242 145.074 50.7227 144.598 50.7227C144.121 50.7227 143.715 50.8242 143.379 51.0273C143.051 51.2305 142.781 51.5117 142.57 51.8711C142.367 52.2227 142.219 52.6289 142.125 53.0898C142.031 53.543 141.984 54.0273 141.984 54.543ZM160.184 58.2344V43H163.582V61H160.523L160.184 58.2344ZM152.168 54.8125V54.5664C152.168 53.5977 152.277 52.7188 152.496 51.9297C152.715 51.1328 153.035 50.4492 153.457 49.8789C153.879 49.3086 154.398 48.8672 155.016 48.5547C155.633 48.2422 156.336 48.0859 157.125 48.0859C157.867 48.0859 158.516 48.2422 159.07 48.5547C159.633 48.8672 160.109 49.3125 160.5 49.8906C160.898 50.4609 161.219 51.1367 161.461 51.918C161.703 52.6914 161.879 53.5391 161.988 54.4609V55C161.879 55.8828 161.703 56.7031 161.461 57.4609C161.219 58.2188 160.898 58.8828 160.5 59.4531C160.109 60.0156 159.633 60.4531 159.07 60.7656C158.508 61.0781 157.852 61.2344 157.102 61.2344C156.312 61.2344 155.609 61.0742 154.992 60.7539C154.383 60.4336 153.867 59.9844 153.445 59.4062C153.031 58.8281 152.715 58.1484 152.496 57.3672C152.277 56.5859 152.168 55.7344 152.168 54.8125ZM155.543 54.5664V54.8125C155.543 55.3359 155.582 55.8242 155.66 56.2773C155.746 56.7305 155.883 57.1328 156.07 57.4844C156.266 57.8281 156.516 58.0977 156.82 58.293C157.133 58.4805 157.512 58.5742 157.957 58.5742C158.535 58.5742 159.012 58.4453 159.387 58.1875C159.762 57.9219 160.047 57.5586 160.242 57.0977C160.445 56.6367 160.562 56.1055 160.594 55.5039V53.9688C160.57 53.4766 160.5 53.0352 160.383 52.6445C160.273 52.2461 160.109 51.9062 159.891 51.625C159.68 51.3438 159.414 51.125 159.094 50.9688C158.781 50.8125 158.41 50.7344 157.98 50.7344C157.543 50.7344 157.168 50.8359 156.855 51.0391C156.543 51.2344 156.289 51.5039 156.094 51.8477C155.906 52.1914 155.766 52.5977 155.672 53.0664C155.586 53.5273 155.543 54.0273 155.543 54.5664ZM179.344 46.8555L174.703 61H170.965L177.305 43.9375H179.684L179.344 46.8555ZM183.199 61L178.547 46.8555L178.172 43.9375H180.574L186.949 61H183.199ZM182.988 54.6484V57.4023H173.977V54.6484H182.988ZM191.883 43V61H188.496V43H191.883ZM198.234 43V61H194.848V43H198.234ZM206.859 61.2344C205.875 61.2344 204.992 61.0781 204.211 60.7656C203.43 60.4453 202.766 60.0039 202.219 59.4414C201.68 58.8789 201.266 58.2266 200.977 57.4844C200.688 56.7344 200.543 55.9375 200.543 55.0938V54.625C200.543 53.6641 200.68 52.7852 200.953 51.9883C201.227 51.1914 201.617 50.5 202.125 49.9141C202.641 49.3281 203.266 48.8789 204 48.5664C204.734 48.2461 205.562 48.0859 206.484 48.0859C207.383 48.0859 208.18 48.2344 208.875 48.5312C209.57 48.8281 210.152 49.25 210.621 49.7969C211.098 50.3438 211.457 51 211.699 51.7656C211.941 52.5234 212.062 53.3672 212.062 54.2969V55.7031H201.984V53.4531H208.746V53.1953C208.746 52.7266 208.66 52.3086 208.488 51.9414C208.324 51.5664 208.074 51.2695 207.738 51.0508C207.402 50.832 206.973 50.7227 206.449 50.7227C206.004 50.7227 205.621 50.8203 205.301 51.0156C204.98 51.2109 204.719 51.4844 204.516 51.8359C204.32 52.1875 204.172 52.6016 204.07 53.0781C203.977 53.5469 203.93 54.0625 203.93 54.625V55.0938C203.93 55.6016 204 56.0703 204.141 56.5C204.289 56.9297 204.496 57.3008 204.762 57.6133C205.035 57.9258 205.363 58.168 205.746 58.3398C206.137 58.5117 206.578 58.5977 207.07 58.5977C207.68 58.5977 208.246 58.4805 208.77 58.2461C209.301 58.0039 209.758 57.6406 210.141 57.1562L211.781 58.9375C211.516 59.3203 211.152 59.6875 210.691 60.0391C210.238 60.3906 209.691 60.6797 209.051 60.9062C208.41 61.125 207.68 61.2344 206.859 61.2344ZM217.582 59.5703L220.945 48.3203H224.566L219.469 62.9102C219.359 63.2305 219.211 63.5742 219.023 63.9414C218.844 64.3086 218.598 64.6562 218.285 64.9844C217.98 65.3203 217.594 65.5938 217.125 65.8047C216.664 66.0156 216.098 66.1211 215.426 66.1211C215.105 66.1211 214.844 66.1016 214.641 66.0625C214.438 66.0234 214.195 65.9688 213.914 65.8984V63.4258C214 63.4258 214.09 63.4258 214.184 63.4258C214.277 63.4336 214.367 63.4375 214.453 63.4375C214.898 63.4375 215.262 63.3867 215.543 63.2852C215.824 63.1836 216.051 63.0273 216.223 62.8164C216.395 62.6133 216.531 62.3477 216.633 62.0195L217.582 59.5703ZM216.176 48.3203L218.93 57.5078L219.41 61.082L217.113 61.3281L212.555 48.3203H216.176Z" fill="#888888"/>
<path d="M118.594 98.4219V104.75H101.086V98.4219H118.594ZM103.828 84.875V119H95.6016V84.875H103.828ZM124.125 84.875V119H115.922V84.875H124.125ZM127.992 106.578V106.086C127.992 104.227 128.258 102.516 128.789 100.953C129.32 99.375 130.102 98.0078 131.133 96.8516C132.164 95.6953 133.438 94.7969 134.953 94.1562C136.469 93.5 138.219 93.1719 140.203 93.1719C142.203 93.1719 143.961 93.5 145.477 94.1562C147.008 94.7969 148.289 95.6953 149.32 96.8516C150.352 98.0078 151.133 99.375 151.664 100.953C152.195 102.516 152.461 104.227 152.461 106.086V106.578C152.461 108.422 152.195 110.133 151.664 111.711C151.133 113.273 150.352 114.641 149.32 115.812C148.289 116.969 147.016 117.867 145.5 118.508C143.984 119.148 142.234 119.469 140.25 119.469C138.266 119.469 136.508 119.148 134.977 118.508C133.445 117.867 132.164 116.969 131.133 115.812C130.102 114.641 129.32 113.273 128.789 111.711C128.258 110.133 127.992 108.422 127.992 106.578ZM135.891 106.086V106.578C135.891 107.531 135.961 108.422 136.102 109.25C136.242 110.078 136.477 110.805 136.805 111.43C137.133 112.039 137.578 112.516 138.141 112.859C138.703 113.203 139.406 113.375 140.25 113.375C141.078 113.375 141.766 113.203 142.312 112.859C142.875 112.516 143.32 112.039 143.648 111.43C143.977 110.805 144.211 110.078 144.352 109.25C144.492 108.422 144.562 107.531 144.562 106.578V106.086C144.562 105.164 144.492 104.297 144.352 103.484C144.211 102.656 143.977 101.93 143.648 101.305C143.32 100.664 142.875 100.164 142.312 99.8047C141.75 99.4453 141.047 99.2656 140.203 99.2656C139.375 99.2656 138.68 99.4453 138.117 99.8047C137.57 100.164 137.133 100.664 136.805 101.305C136.477 101.93 136.242 102.656 136.102 103.484C135.961 104.297 135.891 105.164 135.891 106.086ZM163.688 111.453L168.375 93.6406H173.32L171.562 102.57L166.922 119H162.961L163.688 111.453ZM161.836 93.6406L164.742 111.312L165.07 119H160.266L154.266 93.6406H161.836ZM177.492 110.938L180.422 93.6406H187.992L182.039 119H177.234L177.492 110.938ZM173.883 93.6406L178.617 111.406L179.344 119H175.336L170.789 102.617L169.102 93.6406H173.883ZM218.297 84.875V119H210.07V84.875H218.297ZM228.562 84.875V91.2266H200.039V84.875H228.562ZM225.773 106.578V106.086C225.773 104.227 226.039 102.516 226.57 100.953C227.102 99.375 227.883 98.0078 228.914 96.8516C229.945 95.6953 231.219 94.7969 232.734 94.1562C234.25 93.5 236 93.1719 237.984 93.1719C239.984 93.1719 241.742 93.5 243.258 94.1562C244.789 94.7969 246.07 95.6953 247.102 96.8516C248.133 98.0078 248.914 99.375 249.445 100.953C249.977 102.516 250.242 104.227 250.242 106.086V106.578C250.242 108.422 249.977 110.133 249.445 111.711C248.914 113.273 248.133 114.641 247.102 115.812C246.07 116.969 244.797 117.867 243.281 118.508C241.766 119.148 240.016 119.469 238.031 119.469C236.047 119.469 234.289 119.148 232.758 118.508C231.227 117.867 229.945 116.969 228.914 115.812C227.883 114.641 227.102 113.273 226.57 111.711C226.039 110.133 225.773 108.422 225.773 106.578ZM233.672 106.086V106.578C233.672 107.531 233.742 108.422 233.883 109.25C234.023 110.078 234.258 110.805 234.586 111.43C234.914 112.039 235.359 112.516 235.922 112.859C236.484 113.203 237.188 113.375 238.031 113.375C238.859 113.375 239.547 113.203 240.094 112.859C240.656 112.516 241.102 112.039 241.43 111.43C241.758 110.805 241.992 110.078 242.133 109.25C242.273 108.422 242.344 107.531 242.344 106.578V106.086C242.344 105.164 242.273 104.297 242.133 103.484C241.992 102.656 241.758 101.93 241.43 101.305C241.102 100.664 240.656 100.164 240.094 99.8047C239.531 99.4453 238.828 99.2656 237.984 99.2656C237.156 99.2656 236.461 99.4453 235.898 99.8047C235.352 100.164 234.914 100.664 234.586 101.305C234.258 101.93 234.023 102.656 233.883 103.484C233.742 104.297 233.672 105.164 233.672 106.086ZM266.086 84.875H279.516C282.141 84.875 284.422 85.2656 286.359 86.0469C288.297 86.8281 289.789 87.9844 290.836 89.5156C291.898 91.0469 292.43 92.9375 292.43 95.1875C292.43 97.1406 292.125 98.7734 291.516 100.086C290.906 101.398 290.055 102.484 288.961 103.344C287.883 104.188 286.625 104.883 285.188 105.43L282.492 106.953H271.219L271.172 100.602H279.516C280.562 100.602 281.43 100.414 282.117 100.039C282.805 99.6641 283.32 99.1328 283.664 98.4453C284.023 97.7422 284.203 96.9062 284.203 95.9375C284.203 94.9531 284.023 94.1094 283.664 93.4062C283.305 92.7031 282.773 92.1641 282.07 91.7891C281.383 91.4141 280.531 91.2266 279.516 91.2266H274.312V119H266.086V84.875ZM284.766 119L277.219 103.906L285.938 103.859L293.578 118.648V119H284.766ZM311.836 112.836V93.6406H319.758V119H312.352L311.836 112.836ZM312.586 107.68L314.648 107.633C314.648 109.336 314.445 110.914 314.039 112.367C313.633 113.805 313.031 115.055 312.234 116.117C311.453 117.18 310.484 118.008 309.328 118.602C308.188 119.18 306.867 119.469 305.367 119.469C304.117 119.469 302.969 119.297 301.922 118.953C300.891 118.594 300 118.039 299.25 117.289C298.5 116.523 297.914 115.547 297.492 114.359C297.086 113.156 296.883 111.719 296.883 110.047V93.6406H304.781V110.094C304.781 110.656 304.852 111.141 304.992 111.547C305.133 111.953 305.336 112.297 305.602 112.578C305.867 112.844 306.195 113.047 306.586 113.188C306.992 113.312 307.453 113.375 307.969 113.375C309.156 113.375 310.086 113.125 310.758 112.625C311.43 112.125 311.898 111.445 312.164 110.586C312.445 109.727 312.586 108.758 312.586 107.68ZM331.875 99.0547V119H323.977V93.6406H331.383L331.875 99.0547ZM330.938 105.453L329.086 105.5C329.086 103.562 329.32 101.836 329.789 100.32C330.258 98.7891 330.922 97.4922 331.781 96.4297C332.641 95.3672 333.664 94.5625 334.852 94.0156C336.055 93.4531 337.391 93.1719 338.859 93.1719C340.031 93.1719 341.102 93.3438 342.07 93.6875C343.055 94.0312 343.898 94.5859 344.602 95.3516C345.32 96.1172 345.867 97.1328 346.242 98.3984C346.633 99.6484 346.828 101.195 346.828 103.039V119H338.883V103.016C338.883 102 338.742 101.227 338.461 100.695C338.18 100.148 337.773 99.7734 337.242 99.5703C336.711 99.3672 336.062 99.2656 335.297 99.2656C334.484 99.2656 333.797 99.4219 333.234 99.7344C332.672 100.047 332.219 100.484 331.875 101.047C331.547 101.594 331.305 102.242 331.148 102.992C331.008 103.742 330.938 104.562 330.938 105.453ZM363.773 108.195H357.047C357.047 106.82 357.141 105.609 357.328 104.562C357.531 103.5 357.875 102.547 358.359 101.703C358.844 100.859 359.5 100.078 360.328 99.3594C361.062 98.75 361.695 98.1641 362.227 97.6016C362.758 97.0391 363.164 96.4688 363.445 95.8906C363.727 95.3125 363.867 94.6953 363.867 94.0391C363.867 93.2266 363.75 92.5625 363.516 92.0469C363.297 91.5312 362.961 91.1484 362.508 90.8984C362.07 90.6328 361.516 90.5 360.844 90.5C360.297 90.5 359.781 90.6328 359.297 90.8984C358.828 91.1641 358.445 91.5781 358.148 92.1406C357.852 92.6875 357.688 93.4141 357.656 94.3203H349.711C349.758 91.9922 350.273 90.1016 351.258 88.6484C352.258 87.1797 353.586 86.1094 355.242 85.4375C356.914 84.75 358.781 84.4062 360.844 84.4062C363.125 84.4062 365.086 84.7578 366.727 85.4609C368.367 86.1641 369.625 87.2109 370.5 88.6016C371.375 89.9766 371.812 91.6719 371.812 93.6875C371.812 95.0312 371.555 96.2031 371.039 97.2031C370.539 98.1875 369.859 99.1094 369 99.9688C368.156 100.812 367.211 101.719 366.164 102.688C365.258 103.484 364.641 104.297 364.312 105.125C363.984 105.938 363.805 106.961 363.773 108.195ZM356.086 115.32C356.086 114.195 356.492 113.258 357.305 112.508C358.117 111.742 359.172 111.359 360.469 111.359C361.766 111.359 362.82 111.742 363.633 112.508C364.445 113.258 364.852 114.195 364.852 115.32C364.852 116.445 364.445 117.391 363.633 118.156C362.82 118.906 361.766 119.281 360.469 119.281C359.172 119.281 358.117 118.906 357.305 118.156C356.492 117.391 356.086 116.445 356.086 115.32Z" fill="black"/>
<path d="M1134 0H1348C1356.28 0 1363 6.71573 1363 15V148C1363 156.284 1356.28 163 1348 163H1134V0Z" fill="#C91761"/>
<path d="M1260.62 78.8078C1263.81 78.8078 1266.93 79.7552 1269.59 81.5302C1272.25 83.3052 1274.32 85.8281 1275.54 88.7798C1276.76 91.7315 1277.08 94.9795 1276.46 98.1131C1275.84 101.247 1274.3 104.125 1272.04 106.384C1269.78 108.643 1266.9 110.182 1263.77 110.805C1260.63 111.428 1257.39 111.108 1254.43 109.886C1251.48 108.663 1248.96 106.593 1247.18 103.936C1245.41 101.28 1244.46 98.1565 1244.46 94.9616C1244.46 90.6774 1246.16 86.5686 1249.19 83.5392C1252.22 80.5097 1256.33 78.8078 1260.62 78.8078ZM1260.62 73.4232C1256.36 73.4232 1252.19 74.6864 1248.65 77.0531C1245.11 79.4198 1242.35 82.7836 1240.72 86.7192C1239.09 90.6549 1238.66 94.9855 1239.49 99.1636C1240.32 103.342 1242.37 107.179 1245.39 110.192C1248.4 113.204 1252.24 115.255 1256.41 116.086C1260.59 116.917 1264.92 116.491 1268.86 114.861C1272.79 113.23 1276.16 110.47 1278.52 106.928C1280.89 103.386 1282.15 99.2215 1282.15 94.9616C1282.15 89.2493 1279.88 83.7709 1275.85 79.7317C1271.81 75.6924 1266.33 73.4232 1260.62 73.4232Z" fill="white"/>
<path d="M1274.08 46.4999H1220.23C1218.8 46.4999 1217.43 47.0672 1216.42 48.0771C1215.41 49.0869 1214.85 50.4565 1214.85 51.8845V105.731C1214.85 107.159 1215.41 108.528 1216.42 109.538C1217.43 110.548 1218.8 111.115 1220.23 111.115H1231V105.731H1220.23V68.0383H1279.46V51.8845C1279.46 50.4565 1278.89 49.0869 1277.88 48.0771C1276.87 47.0672 1275.5 46.4999 1274.08 46.4999ZM1220.23 62.6537V51.8845H1274.08V62.6537H1220.23Z" fill="white"/>
<path d="M1255.23 86.8848V103.039L1268.69 94.9617L1255.23 86.8848Z" fill="white"/>
</svg>
